<?xml version="1.0" standalone="no"?>
<!DOCTYPE svg PUBLIC "-//W3C//DTD SVG 20010904//EN"
 "http://www.w3.org/TR/2001/REC-SVG-20010904/DTD/svg10.dtd">
<svg version="1.0" xmlns="http://www.w3.org/2000/svg"
 width="87.000000pt" height="87.000000pt" viewBox="0 0 87.000000 87.000000"
 preserveAspectRatio="xMidYMid meet">
<metadata>
Created by potrace 1.14, written by Peter Selinger 2001-2017
</metadata>
<g transform="translate(0.000000,87.000000) scale(0.100000,-0.100000)"
fill="#000000" stroke="none">
<path d="M170 831 c-113 -37 -171 -116 -166 -227 3 -69 30 -135 77 -189 65
-74 149 -119 149 -80 0 24 32 88 67 132 37 46 39 53 18 53 -8 0 -38 9 -67 20
-86 32 -149 106 -164 192 l-5 33 23 -29 c61 -79 107 -110 208 -140 30 -9 61
-20 68 -25 9 -5 37 3 80 25 36 18 68 31 72 29 3 -2 12 0 19 4 34 21 -60 125
-156 173 -66 32 -171 46 -223 29z"/>
<path d="M524 568 c-216 -73 -321 -308 -202 -452 152 -185 510 -45 544 213 24
182 -149 304 -342 239z m251 -127 c-27 -81 -108 -151 -195 -167 -73 -14 -139
-59 -210 -144 l-21 -25 7 35 c19 101 88 168 209 205 92 28 149 65 191 124 35
48 41 38 19 -28z"/>
</g>
</svg>
